{"accessors" : [{"bufferView" : 0, "byteOffset" : 0, "componentType" : 5123, "count" : 2106, "type" : "SCALAR", "max" : [2105], "min" : [0]}, {"bufferView" : 1, "byteOffset" : 0, "componentType" : 5126, "count" : 2106, "type" : "VEC3", "max" : [86.3436279296875, 1524.11376953125, 62.816993713378906], "min" : [-78.21044921875, -257.8310546875, -89.45355987548828], "name" : "POSITION"}, {"bufferView" : 1, "byteOffset" : 12, "componentType" : 5126, "count" : 2106, "type" : "VEC3", "max" : [1.0000044107437134, 1.0000044107437134, 1.0000044107437134], "min" : [-1.0000044107437134, -1.0000044107437134, -1.0000044107437134], "name" : "NORMAL"}, {"bufferView" : 1, "byteOffset" : 24, "componentType" : 5126, "count" : 2106, "type" : "VEC2", "max" : [0.8750000596046448, -0], "min" : [0.125, -1], "name" : "TEXCOORD_0"}], "asset" : {"generator" : "Aspose.3D 22.5.1", "version" : "2.0"}, "buffers" : [{"uri" : "data:application/octet-stream;base64,", "byteLength" : 71612}], "bufferViews" : [{"buffer" : 0, "byteOffset" : 0, "byteLength" : 4212, "target" : 34963}, {"buffer" : 0, "byteOffset" : 4216, "byteLength" : 67392, "byteStride" : 32, "target" : 34962}], "materials" : [{"name" : "lambert1", "pbrMetallicRoughness" : {"baseColorFactor" : [0.5, 0.5, 0.5, 1], "metallicFactor" : 0, "roughnessFactor" : 0}, "emissiveFactor" : [0, 0, 0], "alphaMode" : "OPAQUE", "doubleSided" : false}], "meshes" : [{"primitives" : [{"attributes" : {"POSITION" : 1, "NORMAL" : 2, "TEXCOORD_0" : 3}, "indices" : 0, "material" : 0, "mode" : 4}], "name" : ""}], "nodes" : [{"matrix" : [0.005995279566689651, 0, 0, 0, 0, 0.0012980655103860383, 0, 0, 0, 0, 0.005995279566689651, 0, 4.48317030634888, 1.2114501395512038, -6.998556391429559, 1], "mesh" : 0, "name" : "Chair_HP1"}], "scene" : 0, "scenes" : [{"nodes" : [0]}]}